<svg xmlns="http://www.w3.org/2000/svg" viewBox="14 -12 112 152" width="104" height="141" fill="none">
  <!-- open flap, folded back behind the beet -->
  <path d="M27,80 L70,42 L113,80 Z" fill="#FFB380"/>
  <!-- the beet popping out, arms up: surprise delivery -->
  <g transform="translate(20,-4)">
    <path d="M46,34 C44,26 44,18 47,10" stroke="#2C8B4E" stroke-width="3.4" stroke-linecap="round" fill="none"/>
    <path d="M47,10 C40,7 37,-2 43,-6 C50,-10 56,-3 54,3 C53,7 51,9 47,10 Z" fill="#3DAE62"/>
    <path d="M41,36 C34,31 26,30 21,34 C16,38 19,45 26,45 C32,45 38,41 41,36 Z" fill="#2C8B4E"/>
    <path d="M57,34 C62,27 70,24 76,28 C81,32 78,39 71,40 C65,40 60,37 57,34 Z" fill="#3DAE62"/>
    <g transform="rotate(-52 14 66)"><rect x="0" y="62" width="20" height="9" rx="4.5" fill="#CE3D80"/></g>
    <g transform="rotate(52 86 66)"><rect x="78" y="62" width="20" height="9" rx="4.5" fill="#8E1A52"/></g>
    <path d="M50,32 C28,31 14,45 14,62 C14,81 30,98 44,108 C47,111 48,114 50,116 C52,114 53,111 56,108 C70,98 86,81 86,62 C86,45 72,31 50,32 Z" fill="#CE3D80"/>
    <path d="M63,35 C76,41 86,50 86,62 C86,79 73,94 58,106 C69,91 78,76 78,62 C78,51 72,42 63,35 Z" fill="#8E1A52" opacity="0.85"/>
    <circle cx="38" cy="60" r="5.2" fill="#3A0D24"/>
    <circle cx="39.7" cy="58.3" r="1.8" fill="#FFFFFF"/>
    <circle cx="63" cy="60" r="5.2" fill="#3A0D24"/>
    <circle cx="64.7" cy="58.3" r="1.8" fill="#FFFFFF"/>
    <path d="M41,71 Q50.5,80 60,71" stroke="#3A0D24" stroke-width="3.4" stroke-linecap="round" fill="none"/>
    <circle cx="29" cy="69" r="4.2" fill="#EE9CC4" opacity="0.75"/>
    <circle cx="72" cy="69" r="4.2" fill="#EE9CC4" opacity="0.75"/>
  </g>
  <!-- envelope front -->
  <rect x="25" y="80" width="90" height="54" rx="7" fill="#FF6600"/>
  <path d="M28,84 L70,116 L112,84" stroke="#FFB380" stroke-width="3" fill="none" stroke-linejoin="round" stroke-linecap="round"/></svg>
