<svg xmlns="http://www.w3.org/2000/svg" viewBox="24 0 100 152" width="100" height="152" fill="none">
  <!-- ears: left upright, right flopped OUTWARD -->
  <g transform="rotate(-7 58 66)">
    <rect x="50" y="12" width="17" height="58" rx="8.5" fill="#FF6600"/>
    <rect x="54.5" y="20" width="8" height="42" rx="4" fill="#FFB380"/>
  </g>
  <g transform="rotate(30 92 66)">
    <rect x="84" y="14" width="17" height="56" rx="8.5" fill="#FF6600"/>
    <rect x="88.5" y="22" width="8" height="40" rx="4" fill="#FFB380"/>
  </g>
  <!-- head -->
  <rect x="40" y="62" width="66" height="56" rx="26" fill="#FF6600"/>
  <!-- blissful closed eyes -->
  <path d="M52,91 Q58,97 64,91" stroke="#4A1D00" stroke-width="3" stroke-linecap="round" fill="none"/>
  <path d="M82,91 Q88,97 94,91" stroke="#4A1D00" stroke-width="3" stroke-linecap="round" fill="none"/>
  <circle cx="47" cy="101" r="4.4" fill="#EE9CC4" opacity="0.85"/>
  <circle cx="99" cy="101" r="4.4" fill="#EE9CC4" opacity="0.85"/>
  <g stroke="#4A1D00" stroke-width="1.6" opacity="0.55" stroke-linecap="round">
    <path d="M50,105 L38,103"/><path d="M50,109 L39,112"/>
    <path d="M96,105 L108,103"/><path d="M96,109 L107,112"/>
  </g>
  <!-- the beetroot, corn-on-the-cob style -->
  <g transform="translate(76,132)">
    <path d="M-30,-2 C-38,-8 -47,-9 -52,-4 C-56,0 -53,6 -47,6 C-41,6 -34,3 -30,-2 Z" fill="#2C8B4E"/>
    <path d="M-31,3 C-40,3 -47,8 -47,14 C-47,19 -41,21 -37,17 C-33,14 -31,9 -31,3 Z" fill="#3DAE62"/>
    <path d="M-31,0 C-31,-11 -22,-17 -10,-17 C6,-17 20,-9 27,0 C20,9 6,17 -10,17 C-22,17 -31,11 -31,0 Z" fill="#CE3D80"/>
    <path d="M8,-13 C17,-9 24,-4 27,0 C24,4 17,9 8,13 C13,5 13,-5 8,-13 Z" fill="#8E1A52" opacity="0.85"/>
    <path d="M27,0 C32,-1 36,1 40,-2" stroke="#8E1A52" stroke-width="2.6" stroke-linecap="round" fill="none"/>
    <circle cx="-6" cy="-22" r="1.8" fill="#CE3D80"/>
    <circle cx="6" cy="-25" r="1.4" fill="#CE3D80" opacity="0.8"/>
  </g>
  <!-- buck teeth sunk into the beet -->
  <rect x="65.5" y="112" width="7" height="10" rx="2.2" fill="#FFFFFF"/>
  <rect x="73.5" y="112" width="7" height="10" rx="2.2" fill="#FFFFFF"/>
  <!-- paws gripping the beet, in the lighter fur -->
  <g transform="rotate(14 55 124)"><rect x="47" y="120" width="15" height="10" rx="5" fill="#FFB380"/></g>
  <g transform="rotate(-14 91 124)"><rect x="84" y="120" width="15" height="10" rx="5" fill="#FFB380"/></g></svg>
