<svg xmlns="http://www.w3.org/2000/svg" viewBox="28 6 88 128" width="106" height="122" fill="none">
  <g transform="rotate(-24 58 76)">
    <rect x="50" y="22" width="17" height="58" rx="8.5" fill="#C24E00"/>
    <rect x="54.5" y="30" width="8" height="42" rx="4" fill="#F2B48C"/>
  </g>
  <rect x="82" y="16" width="17" height="60" rx="8.5" fill="#C24E00"/>
  <rect x="86.5" y="24" width="8" height="44" rx="4" fill="#F2B48C"/>
  <rect x="40" y="68" width="66" height="56" rx="26" fill="#C24E00"/>
  <circle cx="60" cy="92" r="4.6" fill="#4A1D00"/>
  <circle cx="61.4" cy="90.6" r="1.6" fill="#FFFFFF"/>
  <circle cx="86" cy="92" r="4.6" fill="#4A1D00"/>
  <circle cx="87.4" cy="90.6" r="1.6" fill="#FFFFFF"/>
  <path d="M69,100 L73,104 L77,100" stroke="#4A1D00" stroke-width="2.4" fill="none" stroke-linejoin="round" stroke-linecap="round"/>
  <rect x="67" y="105" width="6" height="8" rx="1.8" fill="#FFFFFF"/>
  <rect x="73.5" y="105" width="6" height="8" rx="1.8" fill="#FFFFFF"/>
  <circle cx="49" cy="101" r="4" fill="#EE9CC4" opacity="0.8"/>
  <circle cx="97" cy="101" r="4" fill="#EE9CC4" opacity="0.8"/>
  <g stroke="#4A1D00" stroke-width="1.6" opacity="0.55" stroke-linecap="round">
    <path d="M52,95 L40,92"/><path d="M52,100 L41,102"/>
    <path d="M94,95 L106,92"/><path d="M94,100 L105,102"/>
  </g>
  <g transform="translate(82,112) rotate(30)">
    <path d="M0,0 C-2,-6 -1,-12 3,-16" stroke="#2C8B4E" stroke-width="2.2" fill="none" stroke-linecap="round"/>
    <path d="M3,-16 C-1,-19 -2,-25 2,-27 C7,-29 10,-24 9,-20 C8,-17 6,-16 3,-16 Z" fill="#3DAE62"/>
  </g></svg>
