<svg xmlns="http://www.w3.org/2000/svg" viewBox="28 4 90 126" width="110" height="120" fill="none">
  <g stroke="#2B1E1C" stroke-width="2" fill="none" stroke-linecap="round">
    <path d="M52,64 C46,48 44,30 50,20 C56,12 62,20 62,34 C62,46 60,56 58,63" fill="#F8C8DB"/>
    <path d="M55,58 C53,46 53,32 55,25" stroke-width="1" opacity="0.5"/>
    <path d="M88,64 C82,48 80,30 86,20 C92,12 98,20 98,34 C98,46 96,56 94,63" fill="#F8C8DB"/>
    <path d="M91,58 C89,46 89,32 91,25" stroke-width="1" opacity="0.5"/>
    <path d="M40,92 C40,74 54,62 72,62 C90,62 104,74 104,92 C104,110 90,122 72,122 C54,122 40,110 40,92 Z"/>
    <path d="M46,80 C44,86 44,94 46,100" stroke-width="0.9" opacity="0.4"/>
    <path d="M50,74 C47,84 47,98 50,106" stroke-width="0.9" opacity="0.35"/>
  </g>
  <circle cx="61" cy="88" r="3" fill="#2B1E1C"/>
  <circle cx="84" cy="88" r="3" fill="#2B1E1C"/>
  <path d="M69,99 L72,103 L75,99" stroke="#2B1E1C" stroke-width="1.8" fill="none" stroke-linejoin="round"/>
  <path d="M72,103 C72,107 72,109 72,111" stroke="#2B1E1C" stroke-width="1.4" fill="none"/>
  <g stroke="#2B1E1C" stroke-width="1" opacity="0.6" stroke-linecap="round">
    <path d="M56,98 L42,95"/><path d="M56,102 L43,103"/>
    <path d="M88,98 L102,95"/><path d="M88,102 L101,103"/>
  </g>
  <path d="M103,60 C104,53 109,48 115,50 C120,52 120,59 115,62 C111,64 106,63 103,60 Z" fill="#B9E0C0" stroke="#2B1E1C" stroke-width="1.4"/>
  <path d="M105,59 C108,56 111,54 114,53" stroke="#2B1E1C" stroke-width="0.9" fill="none" opacity="0.6"/></svg>
