<svg xmlns="http://www.w3.org/2000/svg" viewBox="18 8 108 126" width="110" height="128" fill="none">
  <path d="M72,16 L114,30 L114,66 C114,94 96,112 72,126 C48,112 30,94 30,66 L30,30 Z" stroke="#2B1E1C" stroke-width="2.4" fill="none" stroke-linejoin="round"/>
  <path d="M72,23 L108,35 L108,66 C108,90 93,106 72,119 C51,106 36,90 36,66 L36,35 Z" stroke="#2B1E1C" stroke-width="1" fill="none" opacity="0.55" stroke-linejoin="round"/>
  <g transform="translate(43,32) scale(0.58)">
  <!-- stems -->
  <path d="M46,36 C44,28 43,20 45,12" stroke="#2B1E1C" stroke-width="2.72" fill="none" stroke-linecap="round"/>
  <path d="M52,36 C53,28 54,21 53,13" stroke="#2B1E1C" stroke-width="2.72" fill="none" stroke-linecap="round"/>
  <path d="M57,37 C61,31 65,26 70,23" stroke="#2B1E1C" stroke-width="2.4000000000000004" fill="none" stroke-linecap="round"/>
  <!-- center leaf -->
  <path d="M45,13 C39,8 36,1 41,-3 C46,-7 52,-4 53,2 C54,8 50,12 45,13 Z" fill="#B9E0C0" stroke="#2B1E1C" stroke-width="2.4000000000000004"/>
  <path d="M45,12 C44,6 45,1 47,-2" stroke="#2B1E1C" stroke-width="1.4400000000000002" fill="none" opacity="0.65"/>
  <!-- right leaf -->
  <path d="M53,14 C51,7 54,0 60,-1 C66,-2 69,4 66,10 C63,15 57,16 53,14 Z" fill="#B9E0C0" stroke="#2B1E1C" stroke-width="2.4000000000000004"/>
  <path d="M55,12 C57,7 60,3 63,2" stroke="#2B1E1C" stroke-width="1.4400000000000002" fill="none" opacity="0.65"/>
  <!-- far right small leaf -->
  <path d="M70,23 C71,17 76,13 81,15 C85,17 85,23 80,26 C76,28 72,27 70,23 Z" fill="#B9E0C0" stroke="#2B1E1C" stroke-width="2.2399999999999998"/>
  <!-- root body -->
  <path d="M50,36 C34,35 22,45 21,58 C20,73 32,88 43,99 C46,102 48,106 50,109 C52,106 55,102 58,98 C69,87 80,72 79,58 C78,45 66,35 50,36 Z" fill="#F8C8DB" stroke="#2B1E1C" stroke-width="3.3600000000000003"/>
  <!-- veins -->
  <path d="M41,46 C37,58 38,72 44,85" stroke="#2B1E1C" stroke-width="1.6" fill="none" opacity="0.5"/>
  <path d="M58,45 C62,56 61,70 55,83" stroke="#2B1E1C" stroke-width="1.6" fill="none" opacity="0.5"/>
  <path d="M50,42 C49,58 49,76 50,92" stroke="#2B1E1C" stroke-width="1.4400000000000002" fill="none" opacity="0.35"/>
  <!-- engraver hatching, left flank -->
  <path d="M29,52 C28,57 28,61 29,65" stroke="#2B1E1C" stroke-width="1.2800000000000002" fill="none" opacity="0.4"/>
  <path d="M33,48 C31,56 31,64 33,72" stroke="#2B1E1C" stroke-width="1.2800000000000002" fill="none" opacity="0.35"/>
  <path d="M31,72 C32,78 35,84 38,89" stroke="#2B1E1C" stroke-width="1.2800000000000002" fill="none" opacity="0.3"/>
  <!-- tail + root hairs -->
  <path d="M50,109 C49,116 50,122 47,129" stroke="#2B1E1C" stroke-width="2.72" fill="none" stroke-linecap="round"/>
  <path d="M49,115 L44,117" stroke="#2B1E1C" stroke-width="1.6" stroke-linecap="round"/>
  <path d="M49,121 L53,124" stroke="#2B1E1C" stroke-width="1.6" stroke-linecap="round"/></g></svg>
