<svg xmlns="http://www.w3.org/2000/svg" viewBox="0 0 140 140" width="140" height="140" fill="none"><path d="M70,10 L114,26 L114,66 L101,103 L70,128 L39,103 L26,66 L26,26 Z" stroke="#E0589A" stroke-width="6" transform="translate(4,-4)" stroke-linejoin="miter"/><path d="M70,10 L114,26 L114,66 L101,103 L70,128 L39,103 L26,66 L26,26 Z" stroke="#20151A" stroke-width="6" stroke-linejoin="miter"/><g transform="translate(45,34) scale(0.5)"><path d="M53,32 C77,32 87,48 85,63 C83,80 68,95 54,108 L50,112 L50,34 Z" fill="#8E1A52" transform="translate(3,-3)"/><path d="M50,30 C27,30 15,46 17,62 C19,80 35,96 50,110 C65,96 81,80 83,62 C85,46 73,30 50,30 Z" fill="#E0589A"/><path d="M46,108 L50,120 L54,108 Z" fill="#8E1A52"/><path d="M50,32 L41,10 L50,0 L59,10 Z" fill="#3DAE62"/><path d="M46,32 L30,16 L26,26 L42,34 Z" fill="#2C8B4E"/><path d="M54,32 L70,16 L74,26 L58,34 Z" fill="#2C8B4E"/><path d="M37,50 C34,60 35,71 40,80" stroke="#EE9CC4" stroke-width="5" fill="none"/></g></svg>
