<svg xmlns="http://www.w3.org/2000/svg" viewBox="42 26 116 148" width="100" height="128" fill="none">
  <g transform="rotate(10 100 100)">
    <rect x="58" y="40" width="84" height="13" rx="6.5" fill="#6B76F2"/>
    <rect x="58" y="147" width="84" height="13" rx="6.5" fill="#6B76F2"/>
    <path d="M70,53 C70,77 93,88 93,100 C93,112 70,123 70,147" stroke="#6B76F2" stroke-width="5.5" fill="none" stroke-linecap="round"/>
    <path d="M130,53 C130,77 107,88 107,100 C107,112 130,123 130,147" stroke="#6B76F2" stroke-width="5.5" fill="none" stroke-linecap="round"/>
    <circle cx="100" cy="98" r="2.4" fill="#CE3D80"/>
    <circle cx="99" cy="107" r="2" fill="#CE3D80" opacity="0.85"/>
    <circle cx="101" cy="115" r="1.7" fill="#CE3D80" opacity="0.7"/>
    <!-- beet head rising in the bottom bulb, looking up at the falling sand -->
    <g transform="translate(100,147) scale(0.82)">
      <path d="M0,-24 C-13,-24 -20,-16 -20,-8 C-20,-3 -18,0 -16,1 L16,1 C18,0 20,-3 20,-8 C20,-16 13,-24 0,-24 Z" fill="#CE3D80"/>
      <path d="M8,-22 C15,-19 20,-14 20,-8 C20,-4 19,-1 17,1 L10,1 C13,-6 12,-15 8,-22 Z" fill="#8E1A52" opacity="0.85"/>
      <circle cx="-7" cy="-12" r="3.1" fill="#3A0D24"/>
      <circle cx="-6" cy="-13" r="1.1" fill="#FFFFFF"/>
      <circle cx="6" cy="-12" r="3.1" fill="#3A0D24"/>
      <circle cx="7" cy="-13" r="1.1" fill="#FFFFFF"/>
      <path d="M-4,-6 Q0,-2.5 4,-6" stroke="#3A0D24" stroke-width="2.2" stroke-linecap="round" fill="none"/>
      
    </g>
  </g></svg>
