<svg xmlns="http://www.w3.org/2000/svg" viewBox="30 14 84 120" width="105" height="120" fill="none">
  <g stroke="#ECE7E3" fill="none" stroke-linecap="round">
    <path d="M40,26 L104,26" stroke-width="2.2"/><path d="M40,31 L104,31" stroke-width="1"/>
    <path d="M40,122 L104,122" stroke-width="2.2"/><path d="M40,117 L104,117" stroke-width="1"/>
    <path d="M48,31 C48,52 66,62 66,74 C66,86 48,96 48,117" stroke-width="2"/>
    <path d="M96,31 C96,52 78,62 78,74 C78,86 96,96 96,117" stroke-width="2"/>
    <path d="M53,34 C53,50 64,58 66,66" stroke-width="0.9" opacity="0.4"/>
  </g>
  <circle cx="72" cy="66" r="1.6" fill="#ECE7E3"/>
  <circle cx="72" cy="76" r="1.3" fill="#ECE7E3" opacity="0.8"/>
  <circle cx="72" cy="86" r="1.1" fill="#ECE7E3" opacity="0.6"/>
  <g transform="translate(58,88) scale(0.30)">
  <!-- stems -->
  <path d="M46,36 C44,28 43,20 45,12" stroke="#ECE7E3" stroke-width="4.08" fill="none" stroke-linecap="round"/>
  <path d="M52,36 C53,28 54,21 53,13" stroke="#ECE7E3" stroke-width="4.08" fill="none" stroke-linecap="round"/>
  <path d="M57,37 C61,31 65,26 70,23" stroke="#ECE7E3" stroke-width="3.5999999999999996" fill="none" stroke-linecap="round"/>
  <!-- center leaf -->
  <path d="M45,13 C39,8 36,1 41,-3 C46,-7 52,-4 53,2 C54,8 50,12 45,13 Z" fill="#346C42" stroke="#ECE7E3" stroke-width="3.5999999999999996"/>
  <path d="M45,12 C44,6 45,1 47,-2" stroke="#ECE7E3" stroke-width="2.16" fill="none" opacity="0.65"/>
  <!-- right leaf -->
  <path d="M53,14 C51,7 54,0 60,-1 C66,-2 69,4 66,10 C63,15 57,16 53,14 Z" fill="#346C42" stroke="#ECE7E3" stroke-width="3.5999999999999996"/>
  <path d="M55,12 C57,7 60,3 63,2" stroke="#ECE7E3" stroke-width="2.16" fill="none" opacity="0.65"/>
  <!-- far right small leaf -->
  <path d="M70,23 C71,17 76,13 81,15 C85,17 85,23 80,26 C76,28 72,27 70,23 Z" fill="#346C42" stroke="#ECE7E3" stroke-width="3.36"/>
  <!-- root body -->
  <path d="M50,36 C34,35 22,45 21,58 C20,73 32,88 43,99 C46,102 48,106 50,109 C52,106 55,102 58,98 C69,87 80,72 79,58 C78,45 66,35 50,36 Z" fill="#85345B" stroke="#ECE7E3" stroke-width="5.04"/>
  <!-- veins -->
  <path d="M41,46 C37,58 38,72 44,85" stroke="#ECE7E3" stroke-width="2.4" fill="none" opacity="0.5"/>
  <path d="M58,45 C62,56 61,70 55,83" stroke="#ECE7E3" stroke-width="2.4" fill="none" opacity="0.5"/>
  <path d="M50,42 C49,58 49,76 50,92" stroke="#ECE7E3" stroke-width="2.16" fill="none" opacity="0.35"/>
  <!-- engraver hatching, left flank -->
  <path d="M29,52 C28,57 28,61 29,65" stroke="#ECE7E3" stroke-width="1.92" fill="none" opacity="0.4"/>
  <path d="M33,48 C31,56 31,64 33,72" stroke="#ECE7E3" stroke-width="1.92" fill="none" opacity="0.35"/>
  <path d="M31,72 C32,78 35,84 38,89" stroke="#ECE7E3" stroke-width="1.92" fill="none" opacity="0.3"/>
  <!-- tail + root hairs -->
  <path d="M50,109 C49,116 50,122 47,129" stroke="#ECE7E3" stroke-width="4.08" fill="none" stroke-linecap="round"/>
  <path d="M49,115 L44,117" stroke="#ECE7E3" stroke-width="2.4" stroke-linecap="round"/>
  <path d="M49,121 L53,124" stroke="#ECE7E3" stroke-width="2.4" stroke-linecap="round"/></g></svg>
