<svg xmlns="http://www.w3.org/2000/svg" viewBox="45 42 110 120" width="110" height="120" fill="none"><g fill="#E0589A" transform="translate(3,-3)"><rect x="64" y="56" width="72" height="9"/><rect x="64" y="139" width="72" height="9"/></g><rect x="64" y="56" width="72" height="9" fill="#F9F1F4"/><rect x="64" y="139" width="72" height="9" fill="#F9F1F4"/><path d="M74,65 L96,102 L74,139 M126,65 L104,102 L126,139" stroke="#F9F1F4" stroke-width="4"/><rect x="97" y="78" width="6" height="6" fill="#E0589A"/><rect x="98" y="89" width="4" height="4" fill="#E0589A"/><g transform="translate(88,118) scale(0.26)"><path d="M53,32 C77,32 87,48 85,63 C83,80 68,95 54,108 L50,112 L50,34 Z" fill="#8E1A52" transform="translate(3,-3)"/><path d="M50,30 C27,30 15,46 17,62 C19,80 35,96 50,110 C65,96 81,80 83,62 C85,46 73,30 50,30 Z" fill="#E0589A"/><path d="M46,108 L50,120 L54,108 Z" fill="#8E1A52"/><path d="M50,32 L41,10 L50,0 L59,10 Z" fill="#3DAE62"/><path d="M46,32 L30,16 L26,26 L42,34 Z" fill="#2C8B4E"/><path d="M54,32 L70,16 L74,26 L58,34 Z" fill="#2C8B4E"/><path d="M37,50 C34,60 35,71 40,80" stroke="#EE9CC4" stroke-width="5" fill="none"/></g></svg>
