<svg xmlns="http://www.w3.org/2000/svg" viewBox="22 22 100 100" width="110" height="110" fill="none">
  <circle cx="72" cy="72" r="44" stroke="#2B1E1C" stroke-width="3" fill="none"/>
  <circle cx="72" cy="72" r="39.5" stroke="#2B1E1C" stroke-width="1" fill="none" opacity="0.5"/>
  <g transform="translate(44.5,38.45) scale(0.55)">
  <path d="M46,36 C44,28 43,20 45,12" stroke="#2B1E1C" stroke-width="2.8899999999999997" fill="none" stroke-linecap="round"/>
  <path d="M52,36 C53,28 54,21 53,13" stroke="#2B1E1C" stroke-width="2.8899999999999997" fill="none" stroke-linecap="round"/>
  <path d="M45,13 C39,8 36,1 41,-3 C46,-7 52,-4 53,2 C54,8 50,12 45,13 Z" fill="#B9E0C0" stroke="#2B1E1C" stroke-width="2.55"/>
  <path d="M45,12 C44,6 45,1 47,-2" stroke="#2B1E1C" stroke-width="1.53" fill="none" opacity="0.65"/>
  <path d="M53,14 C51,7 54,0 60,-1 C66,-2 69,4 66,10 C63,15 57,16 53,14 Z" fill="#B9E0C0" stroke="#2B1E1C" stroke-width="2.55"/>
  <path d="M55,12 C57,7 60,3 63,2" stroke="#2B1E1C" stroke-width="1.53" fill="none" opacity="0.65"/>
  <path d="M50,36 C34,35 22,45 21,58 C20,73 32,88 43,99 C46,102 48,106 50,109 C52,106 55,102 58,98 C69,87 80,72 79,58 C78,45 66,35 50,36 Z" fill="#F8C8DB" stroke="#2B1E1C" stroke-width="3.57"/>
  <path d="M41,46 C37,58 38,72 44,85" stroke="#2B1E1C" stroke-width="1.7" fill="none" opacity="0.5"/>
  <path d="M58,45 C62,56 61,70 55,83" stroke="#2B1E1C" stroke-width="1.7" fill="none" opacity="0.5"/>
  <path d="M50,109 C49,116 50,122 47,129" stroke="#2B1E1C" stroke-width="2.8899999999999997" fill="none" stroke-linecap="round"/></g>
  <path d="M41,41 L103,103" stroke="#2B1E1C" stroke-width="3" stroke-linecap="round"/></svg>
