<svg xmlns="http://www.w3.org/2000/svg" width="200" height="248" viewBox="0 0 100 124" fill="none">
  <g transform="translate(50,30)">
    <g transform="rotate(-33)"><path d="M0,3 C-6,-7 -6,-18 0,-27 C6,-18 6,-7 0,3 Z" fill="#2C8B4E"></path></g>
    <g transform="rotate(33)"><path d="M0,3 C-6,-7 -6,-18 0,-27 C6,-18 6,-7 0,3 Z" fill="#2C8B4E"></path></g>
    <path d="M0,5 C-6.5,-7 -6.5,-19 0,-30 C6.5,-19 6.5,-7 0,5 Z" fill="#3DAE62"></path>
  </g>
  <path d="M50,30 C29,28 17,42 17,57 C17,77 38,100 50,107 Z" fill="#CE3D80"></path>
  <path d="M50,30 C71,28 83,42 83,57 C83,77 62,100 50,107 Z" fill="#8E1A52"></path>
  <path d="M30,46 C26,53 27,65 33,74" stroke="#EE9CC4" stroke-width="3.2" stroke-linecap="round" opacity="0.5"></path>
  <path d="M50,107 C49,114 47,118 44,122" stroke="#7A1646" stroke-width="2.6" stroke-linecap="round"></path>
  <path d="M50,107 C51,114 53,117 56,120" stroke="#7A1646" stroke-width="2.6" stroke-linecap="round"></path>
</svg>