<svg xmlns="http://www.w3.org/2000/svg" viewBox="32 32 136 136" width="136" height="136" fill="none"><defs><linearGradient id="tile" x1="0" y1="0" x2="1" y2="1"><stop offset="0%" stop-color="#D8478A"></stop><stop offset="100%" stop-color="#7A1646"></stop></linearGradient><linearGradient id="leaf" x1="0" y1="0" x2="0" y2="1"><stop offset="0%" stop-color="#54C77B"></stop><stop offset="100%" stop-color="#2C8B4E"></stop></linearGradient></defs><rect x="32" y="32" width="136" height="136" rx="36" fill="url(#tile)"></rect><g fill="#F6EEF2"><rect x="77" y="50" width="17" height="52" rx="8.5"></rect><rect x="106" y="50" width="17" height="52" rx="8.5"></rect><rect x="64" y="92" width="72" height="64" rx="22"></rect></g><rect x="83" y="112" width="11" height="11" rx="3.5" fill="#B82E6E"></rect><rect x="106" y="112" width="11" height="11" rx="3.5" fill="#B82E6E"></rect><line x1="92" y1="131" x2="108" y2="131" stroke="#B82E6E" stroke-width="3.4" stroke-linecap="round"></line><g transform="translate(100,133) scale(0.85) rotate(19)"><path d="M0,4 C-5.5,-6 -5.5,-18 0,-27 C5.5,-18 5.5,-6 0,4 Z" fill="url(#leaf)" transform="rotate(180)"></path><path d="M0,2 C-5,-6 -5,-16 0,-24 C5,-16 5,-6 0,2 Z" fill="url(#leaf)" transform="rotate(151)"></path><path d="M0,2 C-5,-6 -5,-16 0,-24 C5,-16 5,-6 0,2 Z" fill="url(#leaf)" transform="rotate(209)"></path></g></svg>
